<?xml version="1.0" standalone="no"?>
<!DOCTYPE svg PUBLIC "-//W3C//DTD SVG 20010904//EN"
 "http://www.w3.org/TR/2001/REC-SVG-20010904/DTD/svg10.dtd">
<svg version="1.0" xmlns="http://www.w3.org/2000/svg"
 width="1274.000000pt" height="1280.000000pt" viewBox="0 0 1274.000000 1280.000000"
 preserveAspectRatio="xMidYMid meet">
<metadata>
Created by potrace 1.15, written by Peter Selinger 2001-2017
</metadata>
<g transform="translate(0.000000,1280.000000) scale(0.100000,-0.100000)"
fill="#ffc107" stroke="none">
<path d="M6850 12720 c-260 -26 -476 -122 -674 -299 -165 -147 -356 -199 -574
-156 -55 11 -120 37 -227 90 -232 115 -396 153 -615 142 -293 -16 -561 -135
-766 -341 -104 -104 -189 -228 -241 -348 -19 -46 -51 -104 -70 -130 -78 -107
-201 -194 -338 -239 -66 -22 -84 -23 -288 -21 -241 3 -334 -8 -472 -54 -382
-127 -668 -441 -766 -837 -13 -52 -23 -142 -28 -247 -13 -244 -57 -356 -192
-490 -79 -78 -165 -131 -274 -166 -102 -34 -252 -111 -336 -174 -82 -61 -212
-197 -264 -275 -127 -191 -205 -443 -205 -660 0 -151 49 -364 113 -492 37 -74
51 -148 51 -263 -1 -87 -5 -119 -28 -185 -39 -116 -103 -211 -208 -312 -251
-243 -371 -518 -371 -853 0 -339 117 -605 377 -858 105 -101 119 -120 160
-204 56 -118 66 -163 66 -290 0 -115 -18 -205 -54 -276 -36 -71 -76 -206 -92
-312 -52 -346 63 -707 308 -966 135 -143 290 -241 486 -307 220 -75 356 -210
427 -422 22 -66 28 -108 35 -240 13 -239 61 -406 169 -581 162 -261 403 -438
721 -527 67 -19 103 -21 335 -22 284 -1 318 -6 436 -66 120 -60 244 -191 294
-310 87 -205 246 -395 434 -517 378 -247 877 -253 1252 -17 103 66 306 93 444
61 107 -26 219 -85 308 -163 342 -302 803 -380 1226 -208 183 75 369 223 495
395 135 184 307 270 538 270 86 0 122 -5 185 -25 268 -84 505 -85 748 -4 395
132 679 450 772 863 30 136 76 227 158 315 105 113 258 192 400 206 281 28
509 132 706 322 289 279 414 668 339 1055 -24 122 -25 239 -5 327 37 153 163
324 299 403 219 127 395 312 490 520 183 396 143 832 -109 1183 -107 149 -150
309 -126 473 15 108 60 225 114 299 111 151 171 283 213 468 25 109 26 338 1
451 -74 349 -266 616 -565 789 -145 84 -250 210 -299 360 -34 104 -37 261 -9
409 15 80 18 128 13 240 -6 174 -35 293 -107 443 -175 368 -503 607 -904 659
-194 25 -301 71 -410 173 -98 94 -175 227 -196 339 -99 551 -620 963 -1185
939 -136 -6 -190 -16 -325 -59 -78 -25 -113 -31 -195 -32 -116 -1 -182 13
-281 60 -102 48 -194 125 -268 224 -154 207 -367 357 -602 425 -145 42 -309
59 -444 45z m357 -175 c237 -60 443 -202 580 -397 98 -139 284 -265 457 -308
56 -14 113 -20 195 -20 118 0 133 3 306 56 83 25 103 27 260 27 143 0 182 -3
248 -21 306 -84 541 -278 672 -555 41 -86 84 -225 85 -270 0 -32 57 -153 110
-236 90 -140 234 -256 394 -316 40 -15 117 -32 185 -40 197 -25 337 -74 479
-169 76 -51 190 -162 253 -246 56 -76 134 -239 160 -335 30 -114 37 -341 14
-445 -48 -210 -15 -445 86 -617 60 -101 179 -215 297 -286 306 -181 489 -478
509 -828 13 -230 -56 -464 -193 -649 -89 -121 -145 -275 -159 -436 -14 -163
44 -367 142 -498 71 -95 156 -270 185 -381 32 -125 32 -349 1 -475 -49 -196
-135 -345 -282 -490 -70 -69 -122 -110 -191 -150 -158 -91 -296 -243 -361
-399 -61 -146 -74 -340 -35 -511 24 -103 18 -331 -13 -443 -90 -338 -370 -624
-702 -717 -41 -11 -125 -27 -187 -35 -183 -24 -340 -96 -463 -212 -83 -79
-125 -135 -172 -228 -36 -73 -42 -90 -77 -240 -25 -106 -91 -251 -155 -341
-186 -260 -507 -424 -832 -424 -106 0 -265 29 -346 62 -46 20 -71 22 -217 22
-161 1 -167 0 -260 -32 -160 -56 -304 -159 -382 -276 -206 -305 -587 -480
-952 -436 -222 26 -405 110 -570 259 -134 122 -317 197 -502 208 -162 9 -306
-26 -438 -105 -378 -228 -881 -176 -1206 125 -102 94 -162 178 -232 321 -123
253 -298 408 -534 473 -82 23 -143 26 -404 21 -248 -5 -451 64 -643 218 -241
193 -376 474 -377 781 0 235 -96 461 -258 610 -89 81 -179 133 -304 175 -183
62 -304 139 -433 276 -282 297 -352 733 -179 1120 44 97 64 202 64 329 0 127
-21 220 -74 334 -54 112 -96 168 -214 280 -314 297 -404 735 -236 1137 49 118
130 231 251 349 164 161 246 316 273 517 17 127 -9 300 -60 402 -87 173 -120
404 -85 601 38 221 140 414 296 565 122 117 230 182 392 235 264 88 463 291
538 551 15 52 23 120 29 238 9 182 28 272 83 400 97 224 298 422 526 520 160
69 197 75 476 76 290 2 346 11 502 90 164 82 271 199 371 404 69 144 130 228
232 323 324 300 828 353 1202 127 80 -48 188 -85 299 -101 231 -33 482 45 644
201 144 137 342 230 558 260 94 13 269 1 374 -25z"/>
<path d="M6828 12499 c-202 -29 -367 -111 -543 -270 -33 -30 -93 -71 -133 -92
-208 -109 -410 -132 -643 -73 -97 24 -113 31 -251 106 -160 85 -298 116 -486
107 -137 -6 -240 -31 -360 -88 -209 -97 -382 -278 -468 -489 -38 -93 -87 -164
-179 -255 -186 -185 -440 -273 -713 -247 -187 19 -332 -6 -502 -85 -238 -111
-418 -314 -498 -563 -31 -95 -42 -171 -42 -281 0 -221 -68 -415 -204 -580 -88
-107 -268 -231 -386 -265 -256 -74 -473 -258 -584 -495 -126 -268 -127 -555
-1 -824 68 -145 88 -376 45 -540 -41 -162 -154 -352 -259 -437 -130 -105 -259
-315 -303 -493 -31 -127 -31 -323 0 -450 45 -181 159 -367 299 -487 85 -74
143 -151 198 -263 59 -122 76 -188 82 -335 7 -155 -12 -265 -67 -394 -71 -167
-85 -232 -84 -401 0 -121 5 -165 22 -227 94 -342 324 -582 652 -682 206 -63
389 -223 491 -431 69 -141 89 -228 99 -420 6 -126 14 -179 34 -248 78 -264
259 -475 506 -590 174 -81 303 -102 515 -85 155 13 275 -2 405 -52 202 -78
402 -269 475 -453 57 -142 190 -309 322 -403 80 -58 207 -117 313 -145 112
-31 358 -34 458 -6 95 26 205 72 268 112 64 41 199 89 294 104 246 40 509 -37
706 -206 113 -96 158 -127 258 -174 152 -71 329 -99 499 -80 280 32 523 179
684 416 81 118 245 236 402 290 169 57 384 60 547 7 257 -84 514 -66 743 53
270 140 435 361 499 666 35 167 116 312 239 430 134 128 327 222 497 240 168
19 292 57 411 127 227 134 384 348 446 609 18 75 20 110 16 233 -3 94 -10 166
-22 205 -21 74 -16 275 10 375 51 197 218 428 375 517 263 149 419 345 491
613 31 116 33 338 5 450 -35 138 -91 253 -177 366 -50 66 -102 179 -130 285
-32 122 -31 289 4 419 31 119 81 227 141 305 62 81 130 221 158 325 32 123 32
348 -1 470 -70 261 -247 486 -474 601 -32 16 -92 62 -134 102 -180 171 -267
363 -280 617 -4 91 -2 127 12 175 26 93 32 321 10 426 -36 179 -130 352 -261
484 -152 152 -362 251 -575 270 -206 19 -405 116 -544 267 -108 116 -191 275
-219 417 -71 355 -328 629 -686 731 -98 28 -281 37 -387 20 -43 -7 -118 -26
-168 -44 -87 -30 -95 -31 -260 -31 -167 0 -172 1 -267 34 -172 59 -343 183
-436 316 -70 99 -202 221 -303 278 -178 101 -406 145 -601 116z"/>
</g>
</svg>
